<?xml version="1.0" encoding="utf-8"?>
<!-- Generator: Adobe Illustrator 28.2.0, SVG Export Plug-In . SVG Version: 6.00 Build 0)  -->
<svg version="1.1" id="Camada_1" xmlns="http://www.w3.org/2000/svg" xmlns:xlink="http://www.w3.org/1999/xlink" x="0px" y="0px"
	 viewBox="0 0 1342.78 466.22" style="enable-background:new 0 0 1342.78 466.22;" xml:space="preserve">
<style type="text/css">
	.st0{fill:#010202;}
	.st1{fill:#3DBEE5;}
	.st2{fill:#FFFFFF;}
	.st3{fill:#794A1A;}
	.st4{fill:#E6BF64;}
	.st5{fill:#E52421;}
	.st6{fill:none;stroke:#E52421;stroke-width:18;stroke-linecap:round;stroke-miterlimit:10;}
	.st7{fill:none;stroke:#E52421;stroke-width:18;stroke-linecap:round;stroke-miterlimit:10;stroke-dasharray:34.1971,34.1971;}
</style>
<g>
	<g>
		<path class="st0" d="M727.36,47.43v172.17h-45.22V64.42l10.1,1.15l-66.57,154.04h-48.21l-66.8-153.58l10.33-1.15v154.73h-45.22
			V47.43h73.46l61.75,147.84H592.6L653.9,47.43H727.36z"/>
		<path class="st0" d="M885.75,154.18c-2.14,13.77-6.39,25.87-12.74,36.27c-6.35,10.41-14.39,18.48-24.1,24.22
			c-9.72,5.74-20.78,8.61-33.17,8.61c-12.86,0-24.14-2.87-33.86-8.61c-9.72-5.74-17.33-13.85-22.84-24.33
			c-5.51-10.48-8.26-22.53-8.26-36.16c0-13.92,2.75-26.09,8.26-36.5c5.51-10.41,13.12-18.52,22.84-24.33
			c9.72-5.81,21-8.72,33.86-8.72c12.4,0,23.45,2.87,33.17,8.61c9.72,5.74,17.79,13.77,24.22,24.1
			C879.55,127.67,883.76,139.95,885.75,154.18z M798.29,154.18c0,6.43,1.34,12.17,4.02,17.22c2.68,5.05,6.39,8.99,11.13,11.82
			c4.74,2.83,10.18,4.25,16.3,4.25c6.43,0,12.47-1.41,18.13-4.25c5.66-2.83,10.64-6.77,14.92-11.82c4.28-5.05,7.5-10.79,9.64-17.22
			c-2.14-6.58-5.36-12.4-9.64-17.45c-4.29-5.05-9.26-9.03-14.92-11.94c-5.66-2.91-11.71-4.36-18.13-4.36
			c-6.12,0-11.56,1.46-16.3,4.36c-4.75,2.91-8.46,6.89-11.13,11.94C799.63,141.78,798.29,147.6,798.29,154.18z M874.73,219.61
			l-5.97-47.29l6.2-18.14l-6.2-18.14l5.97-47.52h48.67l-8.26,65.43l8.26,65.66H874.73z"/>
		<path class="st0" d="M945.9,88.52h47.06v37.65l-2.07,5.51v36.73l2.07,10.79v78.28H945.9V88.52z M978.03,154.18
			c1.99-14.23,6.16-26.51,12.51-36.85c6.35-10.33,14.42-18.36,24.22-24.1c9.79-5.74,20.89-8.61,33.29-8.61
			c12.86,0,24.14,2.91,33.86,8.72c9.72,5.82,17.29,13.93,22.73,24.33c5.43,10.41,8.15,22.58,8.15,36.5
			c0,13.62-2.72,25.67-8.15,36.16c-5.43,10.48-13.01,18.59-22.73,24.33c-9.72,5.74-21,8.61-33.86,8.61
			c-12.4,0-23.49-2.87-33.29-8.61c-9.8-5.74-17.83-13.81-24.1-24.22C984.38,180.05,980.18,167.95,978.03,154.18z M1065.5,154.18
			c0-6.58-1.34-12.4-4.02-17.45c-2.68-5.05-6.43-9.03-11.25-11.94c-4.82-2.91-10.29-4.36-16.41-4.36c-6.28,0-12.25,1.46-17.91,4.36
			c-5.66,2.91-10.64,6.89-14.92,11.94c-4.29,5.05-7.58,10.87-9.87,17.45c2.3,6.43,5.58,12.17,9.87,17.22
			c4.28,5.05,9.26,8.99,14.92,11.82c5.66,2.83,11.63,4.25,17.91,4.25c6.12,0,11.59-1.41,16.41-4.25c4.82-2.83,8.57-6.77,11.25-11.82
			C1064.16,166.35,1065.5,160.61,1065.5,154.18z"/>
		<path class="st0" d="M1262.46,154.18c-2.14,13.77-6.39,25.87-12.74,36.27c-6.35,10.41-14.39,18.48-24.1,24.22
			c-9.72,5.74-20.78,8.61-33.17,8.61c-12.86,0-24.14-2.87-33.86-8.61c-9.72-5.74-17.33-13.85-22.84-24.33
			c-5.51-10.48-8.26-22.53-8.26-36.16c0-13.92,2.75-26.09,8.26-36.5c5.51-10.41,13.12-18.52,22.84-24.33
			c9.72-5.81,21-8.72,33.86-8.72c12.4,0,23.45,2.87,33.17,8.61c9.72,5.74,17.79,13.77,24.22,24.1
			C1256.26,127.67,1260.47,139.95,1262.46,154.18z M1175,154.18c0,6.43,1.34,12.17,4.02,17.22c2.68,5.05,6.39,8.99,11.13,11.82
			c4.74,2.83,10.18,4.25,16.3,4.25c6.43,0,12.47-1.41,18.14-4.25c5.66-2.83,10.64-6.77,14.92-11.82c4.28-5.05,7.5-10.79,9.64-17.22
			c-2.15-6.58-5.36-12.4-9.64-17.45c-4.29-5.05-9.26-9.03-14.92-11.94c-5.66-2.91-11.71-4.36-18.14-4.36
			c-6.12,0-11.56,1.46-16.3,4.36c-4.75,2.91-8.46,6.89-11.13,11.94C1176.33,141.78,1175,147.6,1175,154.18z M1251.44,219.61
			l-5.97-47.29l6.2-18.14l-6.2-18.14l5.97-47.52h48.67l-8.26,65.43l8.26,65.66H1251.44z"/>
		<path class="st1" d="M561.61,253.43c20.35,0,38.22,3.56,53.6,10.67c15.38,7.12,27.32,17.14,35.81,30.07
			c8.49,12.93,12.74,28.05,12.74,45.34c0,17.3-4.25,32.41-12.74,45.34c-8.49,12.93-20.43,22.96-35.81,30.07s-33.25,10.67-53.6,10.67
			h-85.86V253.43H561.61z M523.04,405.63l-22.73-22.27h64.97c10.25,0,19.17-1.8,26.74-5.39c7.58-3.59,13.43-8.68,17.56-15.27
			c4.13-6.58,6.2-14.31,6.2-23.19c0-9.03-2.07-16.79-6.2-23.3c-4.13-6.5-9.99-11.55-17.56-15.15c-7.58-3.59-16.49-5.39-26.74-5.39
			h-64.97l22.73-22.27V405.63z"/>
		<path class="st1" d="M762.02,429.28c-15.92,0-30.11-2.91-42.58-8.72c-12.48-5.81-22.31-13.96-29.5-24.45
			c-7.2-10.48-10.79-22.69-10.79-36.62c0-13.62,3.44-25.6,10.33-35.93c6.89-10.33,16.33-18.4,28.35-24.22
			c12.01-5.81,25.6-8.72,40.75-8.72c15.76,0,29.19,3.41,40.29,10.22c11.09,6.81,19.66,16.41,25.71,28.81
			c6.04,12.4,9.07,27.01,9.07,43.85H717.02v-28.24h90.22l-15.38,9.87c-0.61-6.73-2.3-12.43-5.05-17.1
			c-2.75-4.67-6.39-8.23-10.9-10.67c-4.52-2.45-9.91-3.67-16.18-3.67c-6.89,0-12.78,1.38-17.68,4.13
			c-4.9,2.75-8.72,6.54-11.48,11.36s-4.13,10.45-4.13,16.87c0,8.26,1.87,15.27,5.62,21c3.75,5.74,9.26,10.14,16.53,13.2
			c7.27,3.06,16.18,4.59,26.74,4.59c9.64,0,19.24-1.26,28.81-3.79c9.56-2.53,18.25-6.08,26.05-10.68v29.84
			c-9.03,6.12-19.32,10.83-30.88,14.12C787.77,427.63,775.33,429.28,762.02,429.28z"/>
		<path class="st1" d="M937.63,403.34l-16.07-0.23l45.45-108.58h50.04l-61.29,131.08h-53.49l-61.29-131.08h51.88L937.63,403.34z"/>
	</g>
</g>
<g>
	<g>
		<path class="st2" d="M727.36-559.93v172.17h-45.22v-155.18l10.1,1.15l-66.57,154.04h-48.21l-66.8-153.58l10.33-1.15v154.73h-45.22
			v-172.17h73.46l61.75,147.84H592.6l61.29-147.84H727.36z"/>
		<path class="st2" d="M885.75-453.19c-2.14,13.77-6.39,25.87-12.74,36.27c-6.35,10.41-14.39,18.48-24.1,24.22
			c-9.72,5.74-20.78,8.61-33.17,8.61c-12.86,0-24.14-2.87-33.86-8.61c-9.72-5.74-17.33-13.85-22.84-24.33
			c-5.51-10.48-8.26-22.53-8.26-36.16c0-13.92,2.75-26.09,8.26-36.5c5.51-10.41,13.12-18.52,22.84-24.33
			c9.72-5.81,21-8.72,33.86-8.72c12.4,0,23.45,2.87,33.17,8.61c9.72,5.74,17.79,13.77,24.22,24.1
			C879.55-479.7,883.76-467.42,885.75-453.19z M798.29-453.19c0,6.43,1.34,12.17,4.02,17.22c2.68,5.05,6.39,8.99,11.13,11.82
			c4.74,2.83,10.18,4.25,16.3,4.25c6.43,0,12.47-1.41,18.13-4.25c5.66-2.83,10.64-6.77,14.92-11.82c4.28-5.05,7.5-10.79,9.64-17.22
			c-2.14-6.58-5.36-12.4-9.64-17.45c-4.29-5.05-9.26-9.03-14.92-11.94c-5.66-2.91-11.71-4.36-18.13-4.36
			c-6.12,0-11.56,1.46-16.3,4.36c-4.75,2.91-8.46,6.89-11.13,11.94C799.63-465.58,798.29-459.77,798.29-453.19z M874.73-387.76
			l-5.97-47.29l6.2-18.14l-6.2-18.14l5.97-47.52h48.67l-8.26,65.43l8.26,65.66H874.73z"/>
		<path class="st2" d="M945.9-518.84h47.06v37.65l-2.07,5.51v36.73l2.07,10.79v78.28H945.9V-518.84z M978.03-453.19
			c1.99-14.23,6.16-26.51,12.51-36.85c6.35-10.33,14.42-18.36,24.22-24.1c9.79-5.74,20.89-8.61,33.29-8.61
			c12.86,0,24.14,2.91,33.86,8.72c9.72,5.82,17.29,13.93,22.73,24.33c5.43,10.41,8.15,22.58,8.15,36.5
			c0,13.62-2.72,25.67-8.15,36.16c-5.43,10.48-13.01,18.59-22.73,24.33c-9.72,5.74-21,8.61-33.86,8.61
			c-12.4,0-23.49-2.87-33.29-8.61c-9.8-5.74-17.83-13.81-24.1-24.22C984.38-427.32,980.18-439.41,978.03-453.19z M1065.5-453.19
			c0-6.58-1.34-12.4-4.02-17.45c-2.68-5.05-6.43-9.03-11.25-11.94c-4.82-2.91-10.29-4.36-16.41-4.36c-6.28,0-12.25,1.46-17.91,4.36
			c-5.66,2.91-10.64,6.89-14.92,11.94c-4.29,5.05-7.58,10.87-9.87,17.45c2.3,6.43,5.58,12.17,9.87,17.22
			c4.28,5.05,9.26,8.99,14.92,11.82c5.66,2.83,11.63,4.25,17.91,4.25c6.12,0,11.59-1.41,16.41-4.25c4.82-2.83,8.57-6.77,11.25-11.82
			C1064.16-441.02,1065.5-446.76,1065.5-453.19z"/>
		<path class="st2" d="M1262.46-453.19c-2.14,13.77-6.39,25.87-12.74,36.27c-6.35,10.41-14.39,18.48-24.1,24.22
			c-9.72,5.74-20.78,8.61-33.17,8.61c-12.86,0-24.14-2.87-33.86-8.61c-9.72-5.74-17.33-13.85-22.84-24.33
			c-5.51-10.48-8.26-22.53-8.26-36.16c0-13.92,2.75-26.09,8.26-36.5c5.51-10.41,13.12-18.52,22.84-24.33
			c9.72-5.81,21-8.72,33.86-8.72c12.4,0,23.45,2.87,33.17,8.61c9.72,5.74,17.79,13.77,24.22,24.1
			C1256.26-479.7,1260.47-467.42,1262.46-453.19z M1175-453.19c0,6.43,1.34,12.17,4.02,17.22c2.68,5.05,6.39,8.99,11.13,11.82
			c4.74,2.83,10.18,4.25,16.3,4.25c6.43,0,12.47-1.41,18.14-4.25c5.66-2.83,10.64-6.77,14.92-11.82c4.28-5.05,7.5-10.79,9.64-17.22
			c-2.15-6.58-5.36-12.4-9.64-17.45c-4.29-5.05-9.26-9.03-14.92-11.94c-5.66-2.91-11.71-4.36-18.14-4.36
			c-6.12,0-11.56,1.46-16.3,4.36c-4.75,2.91-8.46,6.89-11.13,11.94C1176.33-465.58,1175-459.77,1175-453.19z M1251.44-387.76
			l-5.97-47.29l6.2-18.14l-6.2-18.14l5.97-47.52h48.67l-8.26,65.43l8.26,65.66H1251.44z"/>
		<path class="st1" d="M561.61-353.93c20.35,0,38.22,3.56,53.6,10.67c15.38,7.12,27.32,17.14,35.81,30.07
			c8.49,12.93,12.74,28.05,12.74,45.34c0,17.3-4.25,32.41-12.74,45.34c-8.49,12.93-20.43,22.96-35.81,30.07s-33.25,10.67-53.6,10.67
			h-85.86v-172.17H561.61z M523.04-201.73L500.32-224h64.97c10.25,0,19.17-1.8,26.74-5.39c7.58-3.59,13.43-8.68,17.56-15.27
			c4.13-6.58,6.2-14.31,6.2-23.19c0-9.03-2.07-16.79-6.2-23.3c-4.13-6.5-9.99-11.55-17.56-15.15c-7.58-3.59-16.49-5.39-26.74-5.39
			h-64.97l22.73-22.27V-201.73z"/>
		<path class="st1" d="M762.02-178.09c-15.92,0-30.11-2.91-42.58-8.72c-12.48-5.81-22.31-13.96-29.5-24.45
			c-7.2-10.48-10.79-22.69-10.79-36.62c0-13.62,3.44-25.6,10.33-35.93c6.89-10.33,16.33-18.4,28.35-24.22
			c12.01-5.81,25.6-8.72,40.75-8.72c15.76,0,29.19,3.41,40.29,10.22c11.09,6.81,19.66,16.41,25.71,28.81
			c6.04,12.4,9.07,27.01,9.07,43.85H717.02v-28.24h90.22l-15.38,9.87c-0.61-6.73-2.3-12.43-5.05-17.1
			c-2.75-4.67-6.39-8.23-10.9-10.67c-4.52-2.45-9.91-3.67-16.18-3.67c-6.89,0-12.78,1.38-17.68,4.13
			c-4.9,2.75-8.72,6.54-11.48,11.36s-4.13,10.45-4.13,16.87c0,8.26,1.87,15.27,5.62,21c3.75,5.74,9.26,10.14,16.53,13.2
			c7.27,3.06,16.18,4.59,26.74,4.59c9.64,0,19.24-1.26,28.81-3.79c9.56-2.53,18.25-6.08,26.05-10.68v29.84
			c-9.03,6.12-19.32,10.83-30.88,14.12C787.77-179.73,775.33-178.09,762.02-178.09z"/>
		<path class="st1" d="M937.63-204.03l-16.07-0.23l45.45-108.58h50.04l-61.29,131.08h-53.49l-61.29-131.08h51.88L937.63-204.03z"/>
	</g>
</g>
<g>
	<path class="st3" d="M31.37,115.47c0,0-0.02-18.67-0.02-23.08s3.97-5.51,3.97-5.51s-5.95-3.09-5.95-5.95c0-2.87,0,2.2,0-20.5
		s14.26-25.81,35.72-23.59c9.39,0.97,12.88,15,13.85,30.48c1.24,19.9-1.7,42.2-1.7,42.2L31.37,115.47z"/>
	<path class="st4" d="M389.62,432.27c0,0-141.11-8.61-148.16-8.61s-9.99-24.9-9.99-24.9s-9.21,27.96-19.57,27.96
		c-10.36,0-68.54,4.23-72.95,4.23c-4.41,0-11.54-27.49-11.54-27.49s-6.12,28.96-10.97,28.96l-20.93,2.05
		c-17.05,0-32.19-19.11-32.19-36.16c0,0-0.66-22.38-0.66-24.91c0-2.54,25.35-7.57,25.35-7.57s-26.02-9.47-26.02-12.95
		c0-3.48,2.5-61.33,2.5-65.74s19.4-14.11,19.4-14.11s-19.05-6.05-19.05-10.88s7.78-223.41,0.23-225.33c0,0,33.73,3.54,37.26,3.75
		C108.5,40.95,115.35,58,115.35,58s3.97-14.73,10.6-14.73c2.93,0,89.28,3.92,93.24,3.92c3.97,0,6.98,24.77,6.98,24.77
		s14.18-24.78,20.79-24.78c6.61,0,144.86-11.67,144.86-11.67c15.1,0,27.34,12.24,27.34,27.34c0,0-0.73,17.12-0.73,26.16
		s-25.87,14.11-25.87,14.11s22.93,13.67,22.93,15.87s-9.11,147.57-9.11,154.62c0,7.06-21,9.41-21,9.41s21,7.6,21,12.86
		c0,5.26,10.14,89.64,10.14,89.64C416.52,406.47,402.41,432.27,389.62,432.27z"/>
	<g>
		<g>
			<path class="st0" d="M164.13,128.37l-48.92,16.68v-5.45l48.92,16.57v17.35l-62.27-22.13v-18.12l62.27-22.24V128.37z"/>
			<path class="st5" d="M224.73,145.39v-14.01l40.92,50.37h-28.35l-27.02-34.91h11.34l-27.13,34.91h-28.02l41.14-50.26v13.79
				l-38.69-46.92h28.8l24.46,31.58h-11.34l24.13-31.58h28.35L224.73,145.39z"/>
			<path class="st0" d="M297.11,95.35h16.9l-31.13,89.4h-16.9L297.11,95.35z"/>
			<path class="st0" d="M319.02,128.37v-17.35l62.27,22.24v18.12l-62.27,22.13v-17.35l48.92-16.57v5.45L319.02,128.37z"/>
		</g>
	</g>
	<g>
		<g>
			<path class="st6" d="M317.31,201.32c4.24,3.82,8.14,7.95,11.7,12.32"/>
			<path class="st7" d="M346.59,242.84c25.12,58.62,5.69,133.21-60.06,133.21c-100.98,0,22.01-142-81.62-142
				c-63.49,0-86.65,63.48-72.45,111.96"/>
			<path class="st6" d="M138.77,361.88c2.62,5.08,5.73,9.85,9.33,14.17"/>
		</g>
	</g>
</g>
<g>
	<path class="st3" d="M31.37-491.9c0,0-0.02-18.67-0.02-23.08c0-4.41,3.97-5.51,3.97-5.51s-5.95-3.09-5.95-5.95c0-2.87,0,2.2,0-20.5
		s14.26-25.81,35.72-23.59c9.39,0.97,12.88,15,13.85,30.48c1.24,19.9-1.7,42.2-1.7,42.2L31.37-491.9z"/>
	<path class="st4" d="M389.62-175.1c0,0-141.11-8.61-148.16-8.61s-9.99-24.9-9.99-24.9s-9.21,27.96-19.57,27.96
		c-10.36,0-68.54,4.23-72.95,4.23c-4.41,0-11.54-27.49-11.54-27.49s-6.12,28.96-10.97,28.96l-20.93,2.05
		c-17.05,0-32.19-19.11-32.19-36.16c0,0-0.66-22.38-0.66-24.91c0-2.54,25.35-7.57,25.35-7.57S61.99-251,61.99-254.48
		c0-3.48,2.5-61.33,2.5-65.74s19.4-14.11,19.4-14.11s-19.05-6.05-19.05-10.88c0-4.82,7.78-223.41,0.23-225.33
		c0,0,33.73,3.54,37.26,3.75c6.15,0.37,13.01,17.42,13.01,17.42s3.97-14.73,10.6-14.73c2.93,0,89.28,3.92,93.24,3.92
		c3.97,0,6.98,24.77,6.98,24.77s14.18-24.78,20.79-24.78c6.61,0,144.86-11.67,144.86-11.67c15.1,0,27.34,12.24,27.34,27.34
		c0,0-0.73,17.12-0.73,26.16c0,9.04-25.87,14.11-25.87,14.11s22.93,13.67,22.93,15.87c0,2.2-9.11,147.57-9.11,154.62
		c0,7.06-21,9.41-21,9.41s21,7.6,21,12.86c0,5.26,10.14,89.64,10.14,89.64C416.52-200.9,402.41-175.1,389.62-175.1z"/>
	<g>
		<g>
			<path class="st0" d="M164.13-478.99l-48.92,16.68v-5.45l48.92,16.57v17.35l-62.27-22.13v-18.12l62.27-22.24V-478.99z"/>
			<path class="st5" d="M224.73-461.98v-14.01l40.92,50.37h-28.35l-27.02-34.91h11.34l-27.13,34.91h-28.02l41.14-50.26v13.79
				l-38.69-46.92h28.8l24.46,31.58h-11.34l24.13-31.58h28.35L224.73-461.98z"/>
			<path class="st0" d="M297.11-512.02h16.9l-31.13,89.4h-16.9L297.11-512.02z"/>
			<path class="st0" d="M319.02-478.99v-17.35l62.27,22.24v18.12l-62.27,22.13v-17.35l48.92-16.57v5.45L319.02-478.99z"/>
		</g>
	</g>
	<g>
		<g>
			<path class="st6" d="M317.31-406.05c4.24,3.82,8.14,7.95,11.7,12.32"/>
			<path class="st7" d="M346.59-364.52c25.12,58.62,5.69,133.21-60.06,133.21c-100.98,0,22.01-142-81.62-142
				c-63.49,0-86.65,63.48-72.45,111.96"/>
			<path class="st6" d="M138.77-245.49c2.62,5.08,5.73,9.85,9.33,14.17"/>
		</g>
	</g>
</g>
</svg>
